{
  "accessors": [
    {
      "bufferView": 2,
      "componentType": 5126,
      "count": 12004,
      "max": [
        59.57426834106445,
        154.99554443359375,
        141.1193084716797
      ],
      "min": [
        -54.507972717285156,
        -133.7049560546875,
        0.9543952345848083
      ],
      "type": "VEC3"
    },
    {
      "bufferView": 2,
      "byteOffset": 144048,
      "componentType": 5126,
      "count": 12004,
      "max": [
        0.9999158382415771,
        0.9998924136161804,
        0.9999924302101135
      ],
      "min": [
        -0.9999963045120239,
        -0.9999783635139465,
        -0.999991238117218
      ],
      "type": "VEC3"
    },
    {
      "bufferView": 1,
      "componentType": 5126,
      "count": 12004,
      "max": [
        0.9968652129173279,
        0.9963377714157104
      ],
      "min": [
        0.0005000000237487257,
        0.0005000000237487257
      ],
      "type": "VEC2"
    },
    {
      "bufferView": 0,
      "componentType": 5125,
      "count": 67176,
      "type": "SCALAR"
    },
    {
      "bufferView": 2,
      "byteOffset": 288096,
      "componentType": 5126,
      "count": 2231,
      "max": [
        26.970956802368164,
        120.76748657226563,
        110.64058685302734
      ],
      "min": [
        -29.038803100585938,
        26.99173355102539,
        72.51356506347656
      ],
      "type": "VEC3"
    },
    {
      "bufferView": 2,
      "byteOffset": 314868,
      "componentType": 5126,
      "count": 2231,
      "max": [
        0.9999372363090515,
        0.9949861168861389,
        0.9999459981918335
      ],
      "min": [
        -0.9999379515647888,
        -0.9990745782852173,
        -0.3272252678871155
      ],
      "type": "VEC3"
    },
    {
      "bufferView": 1,
      "byteOffset": 96032,
      "componentType": 5126,
      "count": 2231,
      "max": [
        0.692307710647583,
        1.0
      ],
      "min": [
        0.26923078298568726,
        0.0
      ],
      "type": "VEC2"
    },
    {
      "bufferView": 0,
      "byteOffset": 268704,
      "componentType": 5125,
      "count": 12672,
      "type": "SCALAR"
    }
  ],
  "asset": {
    "extras": {
      "author": "Ehsan Abbasi (https://sketchfab.com/EhsanAbbasi)",
      "license": "CC-BY-4.0 (http://creativecommons.org/licenses/by/4.0/)",
      "source": "https://sketchfab.com/3d-models/shoe-c91d1bc858784f9f86fff2a2efba03af",
      "title": "Shoe"
    },
    "generator": "Sketchfab-12.68.0",
    "version": "2.0"
  },
  "bufferViews": [
    {
      "buffer": 0,
      "byteLength": 319392,
      "name": "floatBufferViews",
      "target": 34963
    },
    {
      "buffer": 0,
      "byteLength": 113880,
      "byteOffset": 319392,
      "byteStride": 8,
      "name": "floatBufferViews",
      "target": 34962
    },
    {
      "buffer": 0,
      "byteLength": 341640,
      "byteOffset": 433272,
      "byteStride": 12,
      "name": "floatBufferViews",
      "target": 34962
    }
  ],
  "buffers": [
    {
      "byteLength": 774912,
      "uri": "scene.bin"
    }
  ],
  "images": [
    {
      "uri": "textures/Shoe_New2_baseColor.jpeg"
    }
  ],
  "materials": [
    {
      "doubleSided": true,
      "name": "Shoe_New2",
      "pbrMetallicRoughness": {
        "baseColorTexture": {
          "index": 0
        },
        "metallicFactor": 0.19073932926829268,
        "roughnessFactor": 0.3858612804878049
      }
    },
    {
      "doubleSided": true,
      "name": "21_-_Default",
      "pbrMetallicRoughness": {
        "baseColorFactor": [
          0.06196059027205865,
          0.06196059027205865,
          0.06196059027205865,
          1.0
        ],
        "metallicFactor": 0.40415396341463417,
        "roughnessFactor": 0.2578125
      }
    }
  ],
  "meshes": [
    {
      "name": "Shoe_Shoe_New2_0",
      "primitives": [
        {
          "attributes": {
            "NORMAL": 1,
            "POSITION": 0,
            "TEXCOORD_0": 2
          },
          "indices": 3,
          "material": 0,
          "mode": 4
        }
      ]
    },
    {
      "name": "Shoe_21 - Default_0",
      "primitives": [
        {
          "attributes": {
            "NORMAL": 5,
            "POSITION": 4,
            "TEXCOORD_0": 6
          },
          "indices": 7,
          "material": 1,
          "mode": 4
        }
      ]
    }
  ],
  "nodes": [
    {
      "children": [
        1
      ],
      "matrix": [
        1.0,
        0.0,
        0.0,
        0.0,
        0.0,
        2.220446049250313e-16,
        -1.0,
        0.0,
        0.0,
        1.0,
        2.220446049250313e-16,
        0.0,
        0.0,
        0.0,
        0.0,
        1.0
      ],
      "name": "Sketchfab_model"
    },
    {
      "children": [
        2
      ],
      "matrix": [
        1.0,
        0.0,
        0.0,
        0.0,
        0.0,
        0.0,
        1.0,
        0.0,
        0.0,
        -1.0,
        0.0,
        0.0,
        0.0,
        0.0,
        0.0,
        1.0
      ],
      "name": "Shoe.FBX"
    },
    {
      "children": [
        3
      ],
      "name": "RootNode"
    },
    {
      "children": [
        4,
        5
      ],
      "matrix": [
        1.955048090351499e-08,
        1.9984013996575287e-17,
        0.11999999731778939,
        0.0,
        0.10875693119624563,
        0.05071419202791877,
        -1.7718752961830984e-08,
        0.0,
        -0.0507141920279181,
        0.10875693119624709,
        8.262390533593348e-09,
        0.0,
        0.0,
        2.950920581817627,
        1.2898883028356067e-07,
        1.0
      ],
      "name": "Shoe"
    },
    {
      "mesh": 0,
      "name": "Shoe_Shoe_New2_0"
    },
    {
      "mesh": 1,
      "name": "Shoe_21 - Default_0"
    }
  ],
  "samplers": [
    {
      "magFilter": 9729,
      "minFilter": 9987,
      "wrapS": 10497,
      "wrapT": 10497
    }
  ],
  "scene": 0,
  "scenes": [
    {
      "name": "Sketchfab_Scene",
      "nodes": [
        0
      ]
    }
  ],
  "textures": [
    {
      "sampler": 0,
      "source": 0
    }
  ]
}
